# Blender 4.0.2
# www.blender.org
mtllib coin2.mtl
o Cylinder
v 0.006874 -0.071105 0.029484
v 0.006874 2.326652 0.029484
v 0.006874 0.771197 -0.330515
v 0.006874 1.441197 -0.330515
v 0.318642 0.771197 -0.150516
v 0.318642 1.441197 -0.150515
v 0.318642 0.771197 0.209484
v 0.318642 1.441197 0.209484
v 0.006874 0.771197 0.389484
v 0.006874 1.441197 0.389484
v -0.304895 0.771197 0.209484
v -0.304895 1.441197 0.209484
v -0.304895 0.771197 -0.150516
v -0.304895 1.441197 -0.150515
v 0.006874 1.106197 -0.455664
v 0.427024 1.106197 -0.213089
v 0.427024 1.106197 0.272058
v 0.006874 1.106197 0.514633
v -0.413276 1.106197 0.272058
v -0.413276 1.106197 -0.213089
vn 0.4689 -0.3471 -0.8122
vn 0.4716 0.3321 -0.8169
vn 0.4757 0.3078 -0.8240
vn 0.9378 -0.3471 -0.0000
vn 0.9432 0.3321 -0.0000
vn 0.9514 0.3078 -0.0000
vn 0.4689 -0.3471 0.8122
vn 0.4716 0.3321 0.8169
vn 0.4757 0.3078 0.8240
vn -0.4689 -0.3471 0.8122
vn -0.4716 0.3321 0.8169
vn -0.4757 0.3078 0.8240
vn -0.9378 -0.3471 -0.0000
vn -0.9432 0.3321 -0.0000
vn -0.9514 0.3078 -0.0000
vn -0.4689 -0.3471 -0.8122
vn -0.4716 0.3321 -0.8169
vn -0.4757 0.3078 -0.8240
vn -0.4757 -0.3078 -0.8240
vn -0.9514 -0.3078 -0.0000
vn -0.4757 -0.3078 0.8240
vn 0.4757 -0.3078 0.8240
vn 0.9514 -0.3078 -0.0000
vn 0.4757 -0.3078 -0.8240
vt 0.750000 0.250000
vt 0.750000 0.490000
vt 0.957846 0.370000
vt 0.250000 0.250000
vt 0.457846 0.370000
vt 0.250000 0.490000
vt 1.000000 0.750000
vt 1.000000 1.000000
vt 0.833333 1.000000
vt 0.833333 0.750000
vt 0.957846 0.130000
vt 0.457846 0.130000
vt 0.666667 1.000000
vt 0.666667 0.750000
vt 0.750000 0.010000
vt 0.250000 0.010000
vt 0.500000 1.000000
vt 0.500000 0.750000
vt 0.542154 0.130000
vt 0.042154 0.130000
vt 0.333333 1.000000
vt 0.333333 0.750000
vt 0.542154 0.370000
vt 0.042154 0.370000
vt 0.166667 1.000000
vt 0.166667 0.750000
vt -0.000000 1.000000
vt -0.000000 0.750000
vt 0.166667 0.500000
vt -0.000000 0.500000
vt 0.333333 0.500000
vt 0.500000 0.500000
vt 0.666667 0.500000
vt 0.833333 0.500000
vt 1.000000 0.500000
s 0
f 1/1/1 3/2/1 5/3/1
f 2/4/2 6/5/2 4/6/2
f 15/7/3 4/8/3 6/9/3 16/10/3
f 1/1/4 5/3/4 7/11/4
f 2/4/5 8/12/5 6/5/5
f 16/10/6 6/9/6 8/13/6 17/14/6
f 1/1/7 7/11/7 9/15/7
f 2/4/8 10/16/8 8/12/8
f 17/14/9 8/13/9 10/17/9 18/18/9
f 1/1/10 9/15/10 11/19/10
f 2/4/11 12/20/11 10/16/11
f 18/18/12 10/17/12 12/21/12 19/22/12
f 1/1/13 11/19/13 13/23/13
f 2/4/14 14/24/14 12/20/14
f 19/22/15 12/21/15 14/25/15 20/26/15
f 1/1/16 13/23/16 3/2/16
f 2/4/17 4/6/17 14/24/17
f 20/26/18 14/25/18 4/27/18 15/28/18
f 13/29/19 20/26/19 15/28/19 3/30/19
f 11/31/20 19/22/20 20/26/20 13/29/20
f 9/32/21 18/18/21 19/22/21 11/31/21
f 7/33/22 17/14/22 18/18/22 9/32/22
f 5/34/23 16/10/23 17/14/23 7/33/23
f 3/35/24 15/7/24 16/10/24 5/34/24
